<?xml version="1.0" standalone="no"?>
<!DOCTYPE svg PUBLIC "-//W3C//DTD SVG 20010904//EN"
 "http://www.w3.org/TR/2001/REC-SVG-20010904/DTD/svg10.dtd">
<svg version="1.0" xmlns="http://www.w3.org/2000/svg"
 width="512.000000pt" height="512.000000pt" viewBox="0 0 512.000000 512.000000"
 preserveAspectRatio="xMidYMid meet">

<g transform="translate(0.000000,512.000000) scale(0.100000,-0.100000)"
fill="#000000" stroke="none">
<path d="M2152 5104 c-92 -24 -164 -66 -232 -134 -140 -140 -188 -353 -118
-525 13 -33 122 -241 241 -463 119 -221 217 -406 217 -410 0 -3 -177 169 -392
384 -246 245 -411 402 -442 419 -225 130 -528 58 -668 -159 -101 -156 -106
-371 -13 -533 17 -29 177 -198 409 -432 209 -211 377 -381 371 -379 -5 3 -176
100 -380 216 -221 125 -392 216 -425 226 -92 25 -159 29 -237 12 -101 -21
-175 -59 -249 -128 -109 -103 -158 -215 -158 -363 0 -151 67 -300 175 -385 27
-21 169 -107 316 -191 148 -83 272 -156 278 -161 5 -4 -24 -5 -65 -2 -286 23
-540 -213 -540 -501 0 -178 110 -361 265 -442 36 -18 195 -69 399 -127 358
-102 496 -151 666 -236 58 -29 359 -195 670 -368 311 -174 601 -331 645 -349
131 -52 227 -68 410 -67 124 0 183 6 261 22 602 129 1149 606 1381 1205 69
179 111 433 98 587 -4 41 -17 138 -30 215 -33 193 -49 431 -41 600 4 77 25
383 47 680 45 610 45 620 -19 748 -64 129 -183 225 -327 262 -284 73 -573
-122 -615 -415 -6 -41 -22 -217 -34 -391 -25 -337 -27 -350 -82 -380 -43 -22
-93 -15 -159 24 -115 68 -225 176 -300 292 -18 28 -130 232 -249 455 -120 223
-227 413 -238 423 -27 23 -59 22 -92 -4 -17 -14 -26 -30 -26 -50 0 -18 58
-136 159 -324 l159 -295 -72 -72 c-77 -79 -116 -146 -142 -250 -21 -81 -14
-220 15 -301 25 -71 18 -91 -44 -131 -24 -15 -67 -52 -95 -83 -192 -210 -186
-526 15 -728 104 -105 225 -155 376 -155 175 0 312 71 442 229 32 39 53 39
152 0 49 -19 80 -23 165 -24 91 0 115 4 180 28 366 134 469 600 194 873 -57
57 -184 134 -220 134 -10 0 -12 12 -8 48 3 26 16 191 29 367 15 211 29 335 39
364 36 100 128 186 230 216 88 26 93 22 41 -42 -89 -109 -125 -210 -126 -348
0 -187 84 -341 245 -446 62 -41 167 -79 217 -79 36 0 36 14 8 -356 -29 -387
-19 -652 36 -948 19 -101 19 -300 0 -410 -75 -430 -378 -869 -782 -1133 -44
-29 -83 -53 -85 -53 -3 0 -10 19 -17 43 -51 170 -201 326 -373 387 -70 24
-183 43 -212 34 -38 -12 -56 -35 -56 -74 0 -52 24 -70 107 -80 125 -16 219
-64 295 -149 45 -50 93 -145 103 -202 l7 -37 -84 -32 c-288 -111 -598 -126
-822 -39 -28 11 -205 106 -393 211 l-343 191 0 66 c0 216 134 391 343 447 195
52 415 -45 513 -226 16 -30 41 -61 57 -70 24 -13 30 -13 54 0 15 9 34 28 43
42 14 25 13 31 -14 85 -100 207 -301 332 -537 335 -108 1 -172 -14 -278 -64
-161 -77 -292 -247 -322 -418 -21 -122 -17 -112 -42 -97 -12 8 -43 26 -69 41
l-47 26 21 58 c29 78 31 234 4 312 -33 98 -67 153 -135 221 -168 168 -417 207
-625 96 -83 -44 -176 -137 -216 -217 -18 -36 -34 -67 -35 -68 -7 -7 -302 82
-346 104 -72 36 -145 122 -169 201 -24 78 -25 131 -4 204 43 150 176 252 329
253 56 0 111 -11 276 -58 205 -58 206 -58 242 -41 35 17 67 64 67 102 0 53
-31 74 -496 340 -331 189 -471 274 -501 305 -95 97 -123 243 -73 373 32 82
114 164 195 194 71 27 179 30 241 8 23 -8 271 -146 553 -307 281 -160 525
-296 541 -302 63 -21 130 33 130 105 0 41 -4 45 -509 552 -590 591 -566 559
-566 730 0 90 3 105 28 153 37 70 97 128 166 161 47 22 70 26 146 26 118 0
178 -27 280 -126 l74 -71 -38 -47 c-79 -94 -121 -211 -121 -335 0 -147 45
-258 148 -367 186 -198 482 -222 699 -57 l66 49 51 -50 c61 -61 104 -76 151
-57 18 8 40 24 49 37 38 55 34 66 -280 646 -162 302 -304 575 -316 608 -54
160 27 342 188 421 51 25 70 29 144 29 72 -1 95 -5 147 -29 90 -41 135 -96
237 -283 107 -199 132 -221 192 -170 18 16 27 34 27 53 0 33 -145 309 -204
387 -118 156 -332 231 -517 181z m2590 -976 c60 -43 93 -84 124 -153 32 -69
34 -112 15 -379 l-14 -188 -45 6 c-112 15 -229 105 -280 214 -24 50 -27 69
-27 157 0 87 3 107 26 155 14 30 45 77 69 105 24 27 49 64 57 82 7 18 17 33
21 33 5 0 29 -15 54 -32z m-1451 -660 c116 -229 382 -469 546 -494 58 -9 138
9 186 41 44 30 51 31 124 3 80 -30 172 -121 202 -202 31 -84 37 -159 17 -236
-59 -229 -304 -347 -521 -251 -70 31 -107 35 -168 17 -48 -14 -64 -26 -131
-101 -60 -65 -92 -92 -144 -117 -61 -30 -74 -33 -162 -33 -88 0 -101 3 -162
33 -155 76 -241 245 -208 408 22 108 72 180 172 252 113 83 141 165 96 287
-17 44 -22 82 -22 145 -1 75 3 93 30 150 31 65 92 140 113 140 6 0 20 -19 32
-42z m-1728 -2118 c143 -54 237 -193 237 -347 0 -69 -16 -147 -28 -141 -4 2
-68 33 -142 69 -149 74 -269 121 -435 170 -60 18 -112 35 -114 36 -10 7 33 78
74 122 102 109 264 145 408 91z"/>
</g>
</svg>
