<?xml version="1.0" standalone="no"?>
<!DOCTYPE svg PUBLIC "-//W3C//DTD SVG 20010904//EN"
 "http://www.w3.org/TR/2001/REC-SVG-20010904/DTD/svg10.dtd">
<svg version="1.0" xmlns="http://www.w3.org/2000/svg"
 width="512.000000pt" height="512.000000pt" viewBox="0 0 512.000000 512.000000"
 preserveAspectRatio="xMidYMid meet">

<g transform="translate(0.000000,512.000000) scale(0.100000,-0.100000)"
fill="#000000" stroke="none">
<path d="M2689 5092 c-63 -40 -124 -114 -139 -167 -7 -24 -11 -69 -8 -98 l4
-54 -74 -10 c-142 -21 -238 -95 -261 -203 -17 -78 -13 -197 8 -258 l18 -52
-33 -21 c-19 -11 -45 -35 -59 -52 l-26 -32 -16 23 c-27 39 -98 82 -135 82
-130 0 -511 -339 -828 -736 -182 -227 -290 -406 -310 -516 -18 -93 -30 -429
-30 -860 l0 -416 -26 -32 c-38 -45 -222 -180 -512 -375 -173 -116 -252 -175
-252 -187 0 -10 6 -18 13 -18 15 0 473 307 615 412 106 78 178 142 195 172 8
15 14 193 19 626 4 343 11 628 17 659 20 105 116 272 262 456 287 364 692 746
816 771 23 4 40 0 70 -20 77 -51 104 -146 63 -225 -43 -85 -177 -233 -301
-334 -30 -24 -60 -62 -82 -105 -30 -57 -40 -67 -64 -69 -61 -3 -130 -111 -347
-543 -198 -395 -300 -616 -293 -634 13 -34 30 -11 95 127 108 231 377 765 432
856 76 127 96 151 129 151 68 0 157 -95 188 -199 33 -114 -2 -225 -131 -416
-37 -55 -69 -110 -73 -124 -3 -13 6 -85 20 -160 14 -75 29 -167 32 -206 12
-138 -27 -321 -92 -432 -40 -69 -153 -184 -228 -233 -66 -43 -76 -56 -50 -66
19 -8 89 33 163 95 238 198 309 517 207 923 l-17 67 69 103 c73 106 115 184
139 249 20 58 88 146 178 229 45 41 132 126 194 187 112 112 113 113 137 97
48 -31 70 -82 69 -159 -1 -100 -22 -139 -169 -300 -196 -215 -355 -420 -355
-459 0 -27 34 -18 53 13 56 95 195 267 353 435 l94 100 25 -24 c14 -13 30 -41
37 -61 20 -68 -1 -109 -159 -321 -168 -225 -259 -356 -280 -405 -8 -21 -14
-62 -12 -102 1 -43 -6 -93 -21 -146 -21 -72 -23 -103 -24 -300 -1 -121 3 -251
7 -290 l8 -70 -43 41 c-116 110 -206 130 -284 62 -54 -48 -67 -81 -62 -157 5
-72 32 -133 100 -233 21 -32 41 -64 44 -72 9 -25 -227 -367 -544 -789 -125
-167 -192 -263 -188 -273 3 -9 12 -14 19 -12 24 8 437 563 623 839 64 96 120
178 124 182 4 5 33 -31 64 -80 56 -85 58 -90 53 -143 -6 -81 -63 -225 -199
-498 -85 -173 -117 -247 -110 -254 8 -8 16 -7 26 2 23 18 239 459 280 572 80
217 81 213 -104 478 -139 199 -173 287 -136 357 60 117 189 89 309 -67 48 -63
70 -80 80 -63 3 4 -2 62 -10 128 -17 144 -20 465 -5 555 18 105 41 168 73 205
32 36 77 54 116 47 98 -19 149 -239 125 -539 -12 -151 -7 -183 22 -153 7 8 26
53 41 100 89 275 214 509 300 562 31 18 81 24 101 10 73 -48 30 -287 -111
-620 -25 -61 -44 -116 -40 -122 13 -20 32 -9 55 33 54 96 147 224 217 298 111
116 206 156 254 108 17 -17 20 -28 15 -61 -14 -85 -111 -247 -245 -408 -110
-132 -99 -142 70 -60 116 55 251 100 306 100 34 0 63 -34 63 -75 0 -49 -19
-82 -82 -140 -63 -60 -120 -97 -248 -162 -86 -43 -95 -51 -97 -78 -10 -116
-52 -221 -134 -335 -142 -196 -250 -408 -303 -592 -21 -72 -20 -88 3 -88 14 0
22 12 31 48 48 173 137 356 276 563 94 139 153 250 154 287 0 18 13 15 27 -7
27 -43 240 -287 377 -431 173 -181 485 -480 503 -480 6 0 15 5 18 10 4 6 -124
140 -283 298 -160 158 -329 332 -377 386 -150 172 -245 296 -245 319 0 17 17
31 83 64 177 91 312 202 337 278 19 57 7 115 -30 147 -25 23 -40 28 -81 28
-63 0 -145 -21 -236 -59 -37 -16 -69 -28 -71 -26 -2 1 23 38 56 81 121 164
171 265 172 347 0 40 -5 53 -28 77 -16 16 -45 32 -64 35 -33 6 -37 11 -52 63
-38 141 -44 251 -21 387 38 217 157 431 365 659 l72 79 -6 111 c-22 397 -20
436 32 546 31 66 119 156 184 188 96 47 201 53 247 14 37 -30 45 -145 38 -562
-6 -329 -13 -485 -43 -997 -6 -100 -5 -113 10 -119 9 -4 20 -4 23 0 13 13 50
680 59 1079 l7 277 20 -32 c38 -64 77 -177 88 -259 6 -50 14 -388 18 -834 6
-660 9 -754 23 -780 39 -74 271 -260 677 -544 96 -66 180 -121 187 -121 8 0
14 8 14 18 0 12 -55 56 -162 132 -276 192 -509 370 -598 456 l-85 82 -6 719
c-9 958 -12 984 -146 1204 -35 59 -40 75 -46 150 -10 126 -21 155 -67 179 -21
11 -60 21 -86 22 -46 3 -49 5 -118 88 -418 502 -881 909 -1032 910 -16 0 -50
-13 -75 -28z m175 -56 c192 -108 550 -444 849 -798 53 -64 97 -118 97 -122 0
-3 -7 -6 -16 -6 -32 0 -137 -65 -189 -118 -67 -66 -111 -153 -132 -259 l-16
-81 -54 61 c-78 89 -170 230 -258 399 l-77 147 -123 105 c-179 153 -334 346
-355 442 -19 82 23 177 102 234 55 40 95 39 172 -4z m-263 -358 c64 -106 200
-253 369 -399 59 -51 73 -71 149 -216 91 -174 172 -295 273 -407 l64 -71 18
-178 c20 -206 26 -183 -81 -300 -174 -189 -285 -384 -335 -587 -37 -148 -24
-379 27 -511 4 -11 -5 -21 -35 -34 -42 -19 -144 -111 -198 -179 l-31 -39 35
108 c84 265 66 416 -52 432 -47 6 -91 -12 -143 -61 l-33 -31 6 55 c3 30 13
119 22 197 21 170 20 174 -85 336 l-69 106 19 38 c28 55 26 135 -6 189 -14 24
-33 47 -41 52 -15 8 -14 15 4 68 12 32 23 76 27 96 l6 37 68 -50 c63 -45 70
-55 96 -122 56 -144 147 -307 171 -307 29 0 24 27 -14 91 -39 64 -94 182 -128
272 -13 37 -28 56 -64 80 -92 63 -149 112 -161 139 -6 15 -29 44 -51 64 -40
35 -40 37 -29 74 14 48 14 167 0 211 -28 82 -100 135 -202 148 -29 3 -51 9
-49 14 1 4 2 32 2 62 0 49 4 59 37 95 65 73 55 78 225 -93 84 -84 195 -185
247 -223 92 -68 98 -74 268 -314 218 -306 201 -286 220 -267 14 14 -3 42 -173
282 -166 234 -196 272 -248 307 -133 92 -336 285 -429 409 -58 78 -71 237 -28
334 38 84 130 134 246 135 l60 0 26 -42z m-331 -771 c25 -12 55 -37 67 -55 25
-38 39 -124 28 -179 -16 -86 -38 -112 -347 -409 l-126 -120 -5 43 c-10 89 -75
191 -156 243 l-23 16 25 49 c17 34 67 89 151 168 70 66 152 154 184 199 l57
80 50 -7 c28 -3 70 -16 95 -28z m248 -1114 c81 -120 102 -166 102 -224 0 -30
-5 -81 -10 -114 -5 -33 -14 -119 -19 -192 -10 -123 -13 -135 -43 -184 -18 -29
-56 -110 -85 -179 l-53 -125 0 110 c-1 205 -45 354 -120 403 -46 31 -113 26
-170 -12 l-40 -26 0 25 c0 48 45 119 249 393 74 100 139 182 143 182 4 0 25
-26 46 -57z"/>
</g>
</svg>
