<?xml version="1.0" standalone="no"?>
<!DOCTYPE svg PUBLIC "-//W3C//DTD SVG 20010904//EN"
 "http://www.w3.org/TR/2001/REC-SVG-20010904/DTD/svg10.dtd">
<svg version="1.0" xmlns="http://www.w3.org/2000/svg"
 width="512.000000pt" height="512.000000pt" viewBox="0 0 512.000000 512.000000"
 preserveAspectRatio="xMidYMid meet">

<g transform="translate(0.000000,512.000000) scale(0.100000,-0.100000)"
fill="#000000" stroke="none">
<path d="M3585 5113 c-615 -51 -1133 -498 -1274 -1099 -110 -472 36 -980 379
-1324 202 -202 433 -327 721 -392 148 -33 425 -33 579 1 282 61 524 196 729
406 555 570 533 1481 -49 2028 -85 80 -224 178 -321 228 -233 117 -514 173
-764 152z m328 -178 c259 -45 493 -168 682 -359 174 -176 287 -387 341 -636
25 -116 25 -361 0 -480 -76 -367 -283 -662 -597 -851 -309 -186 -720 -225
-1061 -103 -181 65 -322 156 -469 303 -239 238 -354 505 -366 851 -6 166 8
271 57 422 139 435 525 772 975 852 108 19 331 20 438 1z"/>
<path d="M2898 4440 c-105 -33 -150 -149 -93 -245 29 -51 75 -75 143 -75 64 0
110 30 141 93 51 102 -11 212 -129 231 -19 3 -47 1 -62 -4z"/>
<path d="M4409 4440 c-101 -30 -150 -148 -98 -239 29 -52 64 -74 126 -79 64
-5 103 9 143 54 77 89 31 234 -85 263 -49 12 -50 12 -86 1z"/>
<path d="M3233 3510 c-48 -20 -58 -91 -18 -139 36 -42 138 -104 222 -134 250
-90 580 -34 729 125 40 43 45 53 40 81 -14 73 -91 90 -154 33 -85 -77 -205
-116 -357 -117 -146 0 -267 41 -358 121 -38 33 -73 43 -104 30z"/>
<path d="M75 2933 c-11 -3 -30 -14 -42 -26 l-23 -20 0 -1203 c0 -661 3 -1210
6 -1219 14 -35 58 -45 199 -45 141 0 185 10 199 45 3 9 6 268 6 576 l0 559
504 0 503 0 6 -62 c5 -51 10 -67 32 -85 26 -22 31 -23 261 -23 l236 0 29 29
29 30 -2 615 -3 615 -23 23 c-22 22 -30 23 -206 26 l-184 3 -4 60 c-3 44 -10
65 -26 82 l-23 22 -727 1 c-400 1 -736 0 -747 -3z m185 -1253 l0 -1090 -45 0
-45 0 0 1090 0 1090 45 0 45 0 0 -1090z m1170 585 l0 -505 -500 0 -500 0 0
505 0 505 500 0 500 0 0 -505z m420 -170 l0 -505 -125 0 -125 0 0 505 0 505
125 0 125 0 0 -505z"/>
<path d="M3794 2161 c-23 -10 -48 -28 -56 -39 -14 -20 -25 -21 -513 -24 -446
-4 -506 -6 -555 -22 -188 -61 -323 -197 -375 -380 -11 -38 -17 -94 -17 -151 1
-231 139 -421 369 -508 58 -22 61 -22 958 -27 l900 -5 57 -27 c80 -37 152
-107 191 -187 29 -60 32 -74 32 -161 0 -84 -3 -102 -29 -157 -35 -76 -113
-153 -193 -191 l-58 -27 -1883 -3 -1884 -2 -21 26 c-44 56 -148 72 -208 31
-51 -34 -79 -82 -79 -134 0 -83 44 -143 121 -163 58 -16 107 -3 154 41 l42 39
1894 2 1894 3 58 22 c151 57 275 181 329 328 26 75 36 224 18 304 -6 31 -26
85 -43 121 -39 83 -157 204 -239 243 -122 58 -97 57 -1014 57 -527 0 -861 4
-895 10 -119 23 -224 105 -277 218 -24 50 -27 69 -27 157 0 90 3 106 29 160
38 76 105 143 181 181 l60 29 504 3 c498 3 504 2 518 -18 8 -11 33 -30 55 -41
50 -26 126 -22 166 8 51 38 67 70 67 136 0 75 -27 120 -89 148 -52 24 -90 23
-142 0z"/>
</g>
</svg>
