<?xml version="1.0" standalone="no"?>
<!DOCTYPE svg PUBLIC "-//W3C//DTD SVG 20010904//EN"
 "http://www.w3.org/TR/2001/REC-SVG-20010904/DTD/svg10.dtd">
<svg version="1.0" xmlns="http://www.w3.org/2000/svg"
 width="512.000000pt" height="512.000000pt" viewBox="0 0 512.000000 512.000000"
 preserveAspectRatio="xMidYMid meet">

<g transform="translate(0.000000,512.000000) scale(0.100000,-0.100000)"
fill="#000000" stroke="none">
<path d="M1232 3153 c5 -440 7 -454 73 -588 44 -90 110 -173 178 -225 30 -22
385 -231 788 -465 404 -233 753 -439 776 -458 96 -78 162 -181 193 -303 19
-72 20 -112 20 -580 0 -444 2 -504 16 -518 13 -14 55 -16 299 -16 248 0 286 2
300 16 15 15 16 80 12 698 -4 751 0 714 -70 859 -43 92 -120 184 -199 240 -35
25 -385 230 -778 457 -393 226 -737 428 -763 448 -92 67 -173 194 -202 314
-11 46 -15 125 -15 291 l0 227 -45 0 -45 0 0 -233 c0 -201 3 -245 20 -311 35
-138 110 -258 221 -351 26 -22 379 -231 784 -465 405 -234 761 -445 792 -470
66 -52 139 -155 174 -243 l24 -62 3 -663 3 -662 -218 2 -218 3 -5 510 -5 510
-27 73 c-49 135 -140 255 -248 329 -25 17 -367 216 -760 442 -393 227 -739
430 -768 452 -91 69 -162 177 -199 300 -13 44 -17 127 -20 447 l-5 392 -45 0
-45 0 4 -397z"/>
<path d="M3260 3322 c0 -245 -7 -294 -56 -402 -57 -125 -132 -195 -331 -309
-116 -66 -134 -87 -105 -120 10 -11 140 -90 291 -177 l274 -158 41 23 c309
174 403 264 472 454 37 103 44 197 44 568 l0 349 -44 0 -44 0 -4 -392 c-4
-375 -6 -396 -27 -463 -49 -151 -142 -263 -291 -349 -47 -27 -99 -57 -115 -67
l-30 -18 -218 126 c-119 68 -215 128 -212 133 2 4 46 32 95 61 167 98 286 250
330 425 17 66 20 111 20 311 l0 233 -45 0 -45 0 0 -228z"/>
<path d="M1635 1898 c-174 -103 -261 -185 -322 -303 -80 -155 -76 -117 -80
-881 -4 -618 -3 -683 12 -698 14 -14 51 -16 298 -16 160 0 288 4 297 10 13 8
16 84 20 547 6 530 6 539 29 600 30 82 89 172 151 231 28 27 111 84 185 126
73 43 136 85 140 93 3 9 -1 25 -9 37 -13 20 -529 324 -565 332 -9 3 -79 -33
-156 -78z m397 -162 c103 -60 186 -112 183 -115 -2 -4 -45 -31 -96 -61 -158
-93 -259 -212 -317 -372 l-27 -73 -5 -510 -5 -510 -217 -3 -218 -2 0 645 0
646 26 77 c32 97 103 203 176 262 31 25 100 70 155 102 l98 56 30 -17 c17 -9
114 -66 217 -125z"/>
</g>
</svg>
